<svg width="7" height="11" viewBox="0 0 7 11" fill="none" xmlns="http://www.w3.org/2000/svg">
<path d="M5.80391 10.4711C5.9488 10.3263 6.02124 10.1506 6.02124 9.94423C6.02124 9.73783 5.9488 9.56219 5.80391 9.41733L1.73084 5.34423L5.80391 1.27113C5.9488 1.12626 6.02124 0.950625 6.02124 0.744225C6.02124 0.537825 5.9488 0.362192 5.80391 0.217326C5.65905 0.0724423 5.48341 0 5.27701 0C5.07061 0 4.89498 0.0724423 4.75012 0.217326L0.25589 4.71155C0.162291 4.80513 0.0962644 4.90385 0.0578146 5.0077C0.0193481 5.11153 0.000114918 5.22371 0.000114918 5.34423C0.000114918 5.46474 0.0193481 5.57692 0.0578146 5.68075C0.0962644 5.7846 0.162291 5.88332 0.25589 5.9769L4.75012 10.4711C4.89498 10.616 5.07061 10.6884 5.27701 10.6884C5.48341 10.6884 5.65905 10.616 5.80391 10.4711Z" fill="#BBBBBB"/>
</svg>
