<svg width="7" height="11" viewBox="0 0 7 11" fill="none" xmlns="http://www.w3.org/2000/svg">
<path d="M0.217326 10.4711C0.0724423 10.3263 0 10.1506 0 9.94423C0 9.73783 0.0724423 9.56219 0.217326 9.41733L4.2904 5.34423L0.217326 1.27113C0.0724423 1.12626 0 0.950625 0 0.744225C0 0.537825 0.0724423 0.362192 0.217326 0.217326C0.362192 0.0724423 0.537825 0 0.744225 0C0.950625 0 1.12626 0.0724423 1.27113 0.217326L5.76535 4.71155C5.85895 4.80513 5.92498 4.90385 5.96343 5.0077C6.00189 5.11153 6.02113 5.22371 6.02113 5.34423C6.02113 5.46474 6.00189 5.57692 5.96343 5.68075C5.92498 5.7846 5.85895 5.88332 5.76535 5.9769L1.27113 10.4711C1.12626 10.616 0.950625 10.6884 0.744225 10.6884C0.537825 10.6884 0.362192 10.616 0.217326 10.4711Z" fill="#232323"/>
</svg>
